<svg xmlns="http://www.w3.org/2000/svg" width="980" height="720" font-family="Segoe UI, Arial, sans-serif">
<defs><marker id="arrow" markerWidth="10" markerHeight="10" refX="8" refY="3" orient="auto"><path d="M0,0 L0,6 L9,3 z" fill="#333"/></marker>
<marker id="block" markerWidth="12" markerHeight="12" refX="9" refY="4" orient="auto"><path d="M0,0 L0,8 L10,4 z" fill="#b3261e"/></marker></defs>
<style>.box{fill:#e8f4f8;stroke:#2a6f97;stroke-width:2}.forbidden{fill:#fdecea;stroke:#b3261e;stroke-width:2}.lbl{font-size:15px;fill:#123;font-weight:600;text-anchor:middle}.sub{font-size:12px;fill:#456;text-anchor:middle}.edge{stroke:#333;stroke-width:2;fill:none;marker-end:url(#arrow)}.stop{stroke:#b3261e;stroke-width:3;stroke-dasharray:6 4;fill:none}</style>
<text x="490" y="30" class="lbl" style="font-size:19px">Governed Retraining Architecture (Phase 15, deterministic, no agents)</text>
<rect x="330" y="50" width="320" height="52" rx="8" class="box"/><text x="490" y="72" class="lbl">MONITORING (Phase 14)</text><text x="490" y="92" class="sub">feature / prediction / performance / error / quality</text>
<line x1="490" y1="102" x2="490" y2="132" class="edge"/>
<rect x="330" y="132" width="320" height="52" rx="8" class="box"/><text x="490" y="154" class="lbl">DRIFT EVENT</text><text x="490" y="174" class="sub">observational evidence only</text>
<line x1="490" y1="184" x2="490" y2="214" class="edge"/>
<rect x="330" y="214" width="320" height="52" rx="8" class="box"/><text x="490" y="236" class="lbl">RETRAINING REQUEST</text><text x="490" y="256" class="sub">schema: evidence ids, cutoffs, fingerprints, origin</text>
<line x1="490" y1="266" x2="490" y2="296" class="edge"/>
<rect x="280" y="296" width="420" height="66" rx="8" class="box"/><text x="490" y="320" class="lbl">DETERMINISTIC RETRAINING POLICY 15.0.0</text><text x="490" y="341" class="sub">17 gates: severity, persistence, performance signal, data quality, labels,</text><text x="490" y="356" class="sub">minimum new data, cooldown, reference state, lineage, fingerprints, protocol, final-test, concurrency</text>
<line x1="380" y1="362" x2="300" y2="412" class="edge"/><line x1="490" y1="362" x2="490" y2="412" class="edge"/><line x1="600" y1="362" x2="680" y2="412" class="edge"/>
<rect x="180" y="412" width="220" height="46" rx="8" class="box"/><text x="290" y="440" class="lbl">DENY</text>
<rect x="380" y="412" width="220" height="46" rx="8" class="box"/><text x="490" y="440" class="lbl">DEFER</text>
<rect x="580" y="412" width="220" height="46" rx="8" class="box"/><text x="490" y="440" class="lbl" x="690">ALLOW</text>
<line x1="690" y1="458" x2="690" y2="488" class="edge"/>
<rect x="530" y="488" width="320" height="52" rx="8" class="box"/><text x="690" y="510" class="lbl">BOUNDED RETRAINING JOB</text><text x="690" y="530" class="sub">expanding-window refit, frozen spec, seed 42, no HPO, no feature selection</text>
<line x1="690" y1="540" x2="690" y2="570" class="edge"/>
<rect x="530" y="570" width="320" height="52" rx="8" class="box"/><text x="690" y="592" class="lbl">RETRAINED CANDIDATE</text><text x="690" y="612" class="sub">spec fingerprint = parent; new instance fingerprint</text>
<line x1="690" y1="622" x2="690" y2="650" class="edge"/>
<rect x="530" y="650" width="320" height="52" rx="8" class="box"/><text x="690" y="672" class="lbl">VALIDATION + REGISTRATION</text><text x="690" y="692" class="sub">REGISTERED_CHALLENGER, promotion_eligible=false</text>
<rect x="120" y="560" width="300" height="90" rx="8" class="forbidden"/><text x="270" y="590" class="lbl" style="fill:#b3261e">AUTOMATIC PROMOTION</text><text x="270" y="612" class="sub" style="fill:#b3261e">FORBIDDEN IN PHASE 15</text><text x="270" y="630" class="sub" style="fill:#b3261e">no ACTIVE / CHAMPION / canary created</text>
<line x1="690" y1="676" x2="424" y2="612" class="stop" marker-end="url(#block)"/>
<text x="470" y="700" class="sub">challenger stops here; Phase 16 handles champion-challenger evaluation</text>
</svg>
