<svg xmlns="http://www.w3.org/2000/svg" width="1000" height="560" viewBox="0 0 1000 560"><style>text{font-family:Arial;fill:#172554}.box{fill:#eff6ff;stroke:#2563eb;stroke-width:2}.lock{fill:#fff7ed;stroke:#c2410c;stroke-width:2}.arrow{stroke:#475569;stroke-width:2;marker-end:url(#a)}</style><defs><marker id="a" markerWidth="8" markerHeight="8" refX="7" refY="4" orient="auto"><path d="M0 0L8 4L0 8z" fill="#475569"/></marker></defs><text x="500" y="32" text-anchor="middle" font-size="22" font-weight="bold">Phase 12 reproducible MLOps lineage</text><rect class="box" x="55" y="70" width="250" height="48" rx="8"/><text x="180" y="100" text-anchor="middle" font-size="15">RTS-GMLC raw source</text><rect class="box" x="375" y="70" width="250" height="48" rx="8"/><text x="500" y="100" text-anchor="middle" font-size="15">Canonical data</text><rect class="box" x="695" y="70" width="250" height="48" rx="8"/><text x="820" y="100" text-anchor="middle" font-size="15">Feature manifest</text><rect class="box" x="695" y="180" width="250" height="48" rx="8"/><text x="820" y="210" text-anchor="middle" font-size="15">Protocol freezes</text><rect class="box" x="375" y="180" width="250" height="48" rx="8"/><text x="500" y="210" text-anchor="middle" font-size="15">Experiment evidence</text><rect class="box" x="55" y="180" width="250" height="48" rx="8"/><text x="180" y="210" text-anchor="middle" font-size="15">MLflow local tracking</text><rect class="box" x="55" y="290" width="250" height="48" rx="8"/><text x="180" y="320" text-anchor="middle" font-size="15">Model specification</text><rect class="box" x="375" y="290" width="250" height="48" rx="8"/><text x="500" y="320" text-anchor="middle" font-size="15">Reference registry</text><rect class="box" x="695" y="290" width="250" height="48" rx="8"/><text x="820" y="320" text-anchor="middle" font-size="15">Later deterministic governance</text><line class="arrow" x1="305" y1="94" x2="375" y2="94"/><line class="arrow" x1="625" y1="94" x2="695" y2="94"/><line class="arrow" x1="820" y1="118" x2="820" y2="180"/><line class="arrow" x1="695" y1="204" x2="625" y2="204"/><line class="arrow" x1="375" y1="204" x2="305" y2="204"/><line class="arrow" x1="180" y1="228" x2="180" y2="290"/><line class="arrow" x1="305" y1="314" x2="375" y2="314"/><line class="arrow" x1="625" y1="314" x2="695" y2="314"/><rect class="lock" x="300" y="420" width="400" height="72" rx="10"/><text x="500" y="450" text-anchor="middle" font-size="18" font-weight="bold">Final-test performance</text><text x="500" y="478" text-anchor="middle" font-size="17">LOCKED / NOT EXECUTED</text></svg>